<svg width="838" height="201" viewBox="0 0 838 201" fill="none" xmlns="http://www.w3.org/2000/svg">
<path d="M63.7064 48.2024C59.2738 48.2024 54.8412 50.0641 50.4086 53.7875C46.1533 57.5109 42.5185 63.7166 39.5043 72.4045C36.4901 80.9152 34.983 91.9081 34.983 105.383C34.983 118.504 36.8447 128.965 40.5681 136.766C44.4689 144.39 48.8128 149.709 53.6001 152.724C58.5646 155.738 62.8199 157.245 66.366 157.245C69.5575 157.245 72.8377 156.181 76.2064 154.053C79.5752 151.748 82.5008 149.355 84.983 146.873C85.3377 146.518 85.8696 145.897 86.5788 145.011C87.4653 144.124 88.2632 143.681 88.9724 143.681C89.8589 143.681 90.9228 144.036 92.1639 144.745L114.77 157.245C115.479 157.6 116.543 158.131 117.962 158.841C119.558 159.373 120.621 159.905 121.153 160.436C121.862 160.968 122.217 161.678 122.217 162.564C122.217 163.451 121.951 164.426 121.419 165.49C117.519 172.05 111.401 178.787 103.068 185.702C94.7348 192.617 83.21 196.075 68.4937 196.075C56.9689 196.075 45.8873 191.819 35.249 183.309C24.788 174.621 16.366 162.83 9.98304 147.936C3.60006 133.043 0.408569 116.642 0.408569 98.7343C0.408569 81.0038 3.42275 65.0464 9.45112 50.862C15.6568 36.6776 23.5469 25.596 33.1213 17.6173C42.6958 9.63855 52.5362 5.64919 62.6426 5.64919C75.2313 5.64919 85.3377 8.30876 92.9618 13.6279C100.763 18.7698 106.348 23.7343 109.717 28.5215C110.426 29.5854 111.047 30.5605 111.579 31.4471C112.288 32.3336 112.643 33.2201 112.643 34.1066C112.643 35.1705 111.667 36.5889 109.717 38.362C101.561 44.7449 95.71 50.3301 92.1639 55.1173C90.3908 57.4223 88.8837 59.1953 87.6426 60.4364C86.4015 61.5003 85.1603 62.0322 83.9192 62.0322C82.6781 62.0322 81.2596 61.1457 79.6639 59.3726C75.9405 55.2946 73.015 52.4577 70.8873 50.862C68.9369 49.0889 66.5433 48.2024 63.7064 48.2024Z" fill="white"/>
<path d="M203.685 2.98961C221.416 2.98961 234.714 8.13146 243.579 18.4152C252.444 28.5215 258.118 40.5783 260.6 54.5854C263.082 68.4152 264.324 84.1066 264.324 101.66C264.324 115.844 262.196 130.472 257.941 145.543C253.685 160.436 247.125 173.025 238.26 183.309C229.394 193.592 218.49 198.734 205.547 198.734C180.192 198.734 163.348 188.096 155.015 166.819C146.682 145.366 142.515 122.405 142.515 97.9364C142.515 74.3549 145.707 55.4719 152.09 41.2875C158.65 27.1031 166.54 17.174 175.76 11.5003C185.157 5.82649 194.465 2.98961 203.685 2.98961ZM203.419 131.181C208.207 131.181 211.753 128.522 214.058 123.202C216.363 117.883 217.515 111.5 217.515 104.053C217.515 96.9613 216.363 90.7556 214.058 85.4364C211.93 80.1173 209.004 77.4577 205.281 77.4577C200.848 77.4577 197.48 80.5605 195.175 86.7662C193.047 92.7946 191.983 99.3549 191.983 106.447C191.983 113.717 192.692 119.656 194.111 124.266C195.529 128.876 198.632 131.181 203.419 131.181Z" fill="white"/>
<path d="M312.979 13.6279C313.334 17.7059 314.132 22.1386 315.373 26.9258C316.791 31.713 318.742 37.9187 321.224 45.5428C322.997 51.0393 327.518 63.362 334.788 82.5109C342.235 101.66 347.199 113.983 349.681 119.479C351.986 125.33 355.089 134.284 358.99 146.341L364.841 164.426L368.298 158.309L375.745 143.681C376.809 141.199 380.089 134.727 385.586 124.266C397.11 102.812 404.646 87.9187 408.192 79.5854C410.852 73.3797 414.664 65.0464 419.628 54.5854C420.869 51.7485 422.376 48.3797 424.149 44.479C426.1 40.401 427.43 37.4754 428.139 35.7024C428.493 34.6386 429.557 31.3584 431.33 25.862C433.281 20.1882 435.142 15.401 436.915 11.5003C438.866 7.59954 440.461 5.64919 441.703 5.64919C443.121 5.64919 443.83 7.68819 443.83 11.7662C443.83 14.0712 443.742 16.3761 443.564 18.6811C443.387 20.8088 443.21 22.7591 443.032 24.5322L442.235 34.1066C441.703 43.3265 441.437 60.3478 441.437 85.1705C441.437 93.8584 441.259 104.94 440.905 118.415C440.727 131.713 440.461 140.667 440.107 145.277L439.841 188.628V189.426C439.841 191.199 438.866 192.085 436.915 192.085C432.128 192.085 429.025 191.997 427.607 191.819C426.72 191.642 426.277 190.933 426.277 189.692L426.543 185.17C426.543 177.546 426.72 165.135 427.075 147.936C427.43 130.561 427.873 119.036 428.405 113.362C428.582 109.107 428.671 100.153 428.671 86.5003C428.671 79.0535 428.582 73.3797 428.405 69.479C424.681 76.0393 422.465 80.1173 421.756 81.713C420.337 84.1953 418.298 88.096 415.639 93.4152C415.107 94.479 414.486 95.7201 413.777 97.1386C413.068 98.557 412.27 99.9754 411.383 101.394C409.078 106.004 403.937 116.376 395.958 132.511L387.447 150.064C385.674 153.078 382.749 158.575 378.671 166.553C374.593 174.532 371.844 179.94 370.426 182.777L366.171 191.287C365.107 193.592 363.777 195.631 362.181 197.405C360.763 199.178 359.522 200.064 358.458 200.064C357.394 200.064 356.596 199.798 356.064 199.266C355.71 198.734 355.355 197.848 355 196.607C354.646 195.543 354.38 194.745 354.203 194.213C353.848 193.149 351.898 187.564 348.352 177.458C344.805 167.174 342.057 159.816 340.107 155.383C337.625 149.355 334.433 141.465 330.532 131.713C326.632 121.961 324.061 114.958 322.82 110.702C321.224 106.27 319.805 102.014 318.564 97.9364L314.575 85.4364C311.206 75.5074 309.256 69.5676 308.724 67.6173L308.192 77.4577C308.015 81.1811 307.926 86.8549 307.926 94.479C307.926 119.656 307.571 137.209 306.862 147.139C306.685 149.621 306.596 154.674 306.596 162.298L306.862 189.16V189.958C306.862 193.149 305.621 194.568 303.139 194.213C302.252 193.858 300.834 193.681 298.883 193.681C296.933 193.681 295.515 193.681 294.628 193.681C293.742 193.681 293.298 193.061 293.298 191.819L293.564 187.032L293.032 161.5L292.235 105.915C292.235 96.8726 292.412 86.057 292.766 73.4683C293.121 60.7024 293.476 52.1031 293.83 47.6705C294.362 41.8194 294.717 35.4364 294.894 28.5215C295.249 21.4293 295.426 15.6669 295.426 11.2343V10.1705C295.426 7.8655 295.692 6.62437 296.224 6.44707C296.756 6.09246 297.642 6.00381 298.883 6.18111H301.011C303.848 6.18111 306.064 6.09246 307.66 5.91515C310.674 5.91515 312.447 8.48608 312.979 13.6279Z" fill="white"/>
<path d="M484.104 5.38323C486.409 5.56053 488.625 5.64919 490.753 5.64919C493.058 5.47188 495.008 5.38323 496.604 5.38323C500.505 5.38323 503.342 5.47188 505.115 5.64919C507.242 5.8265 508.75 6.26976 509.636 6.97897C510.523 7.68819 510.966 8.66337 510.966 9.90451C510.966 10.791 510.877 11.7662 510.7 12.83C510.523 13.8939 510.345 14.8691 510.168 15.7556C508.218 30.8265 507.154 46.3407 506.976 62.2981C506.799 66.9081 506.711 74.0003 506.711 83.5747L506.976 115.756C507.154 118.415 507.242 121.163 507.242 124L507.508 134.639C507.863 143.858 508.04 150.685 508.04 155.117C508.04 158.486 507.952 160.525 507.774 161.234C507.597 161.944 507.508 163.983 507.508 167.351L507.774 181.979C507.952 184.107 508.04 186.766 508.04 189.958C508.218 192.263 507.508 193.681 505.913 194.213C504.494 194.922 502.544 195.188 500.062 195.011H475.859C473.2 195.188 471.515 194.568 470.806 193.149C470.097 191.908 469.654 189.78 469.476 186.766C469.122 185.525 469.299 182.245 470.008 176.926C470.718 171.961 471.072 167.706 471.072 164.16C471.072 162.919 471.693 150.951 472.934 128.256C473.998 111.589 474.53 102.458 474.53 100.862L475.062 74.7981L475.593 50.596L476.125 36.2343L476.657 26.6598V15.4896C476.657 8.57472 478.43 5.11728 481.976 5.11728C482.863 5.11728 483.572 5.20593 484.104 5.38323Z" fill="white"/>
<path d="M584.148 0.330044C588.048 0.330044 590.885 0.773304 592.658 1.65983C594.609 2.36905 596.116 3.69883 597.18 5.64919C598.953 9.37259 601.169 14.1598 603.829 20.0109L613.669 41.2875L626.169 68.6811C628.474 73.6457 631.488 80.2059 635.212 88.362C638.935 96.518 641.595 102.192 643.19 105.383C646.205 111.589 648.155 115.401 649.041 116.819L656.488 131.447L664.733 147.67L664.201 132.245L663.137 106.181V98.2024C663.137 88.4506 663.314 78.6102 663.669 68.6811C663.669 61.2343 663.58 55.2059 663.403 50.596L663.137 30.3832L664.201 4.85132C664.201 2.19174 665.531 0.861951 668.19 0.861951C669.077 0.861951 670.85 1.12791 673.509 1.65983C675.105 2.01444 676.79 2.19175 678.563 2.19175C680.336 2.19175 681.754 2.19175 682.818 2.19175C684.236 2.19175 685.123 2.36906 685.478 2.72366C686.009 3.07827 686.275 3.69884 686.275 4.58537C686.275 5.29458 686.187 6.09245 686.009 6.97897C685.832 7.86551 685.744 8.84069 685.744 9.90451L685.478 32.7768L684.946 86.5003L684.68 94.213C684.68 100.241 684.768 105.738 684.946 110.702C685.123 115.667 685.3 119.745 685.478 122.936C686.009 130.561 686.275 136.944 686.275 142.085C686.275 141.376 686.541 151.926 687.073 173.734L687.605 188.628V189.16C687.605 192.706 685.921 194.302 682.552 193.947C682.02 193.77 680.956 193.681 679.361 193.681L671.648 193.947H670.052C668.811 193.947 667.836 193.681 667.126 193.149C666.595 192.617 665.619 191.11 664.201 188.628C663.669 187.387 662.96 185.614 662.073 183.309C661.187 181.004 660.123 178.433 658.882 175.596C651.258 156.447 645.761 143.415 642.392 136.5C638.492 129.053 628.651 107.688 612.871 72.4045C609.325 65.135 605.336 57.4222 600.903 49.2662L593.19 35.4364L593.988 60.7024L594.254 76.3939C594.609 88.096 594.786 95.8088 594.786 99.5322C594.786 114.071 595.052 128.699 595.584 143.415L595.85 164.16C595.85 167.883 596.027 173.291 596.382 180.383L596.914 189.692V190.224C596.914 191.997 596.47 193.149 595.584 193.681C594.697 194.213 593.456 194.479 591.861 194.479L586.009 194.745C582.286 195.277 578.297 195.543 574.041 195.543C569.077 195.543 564.999 195.631 561.807 195.809L548.244 196.075C545.584 196.075 543.811 195.543 542.924 194.479C542.038 193.592 541.506 192.529 541.329 191.287C541.151 190.046 540.974 189.16 540.797 188.628C540.087 185.436 539.733 181.536 539.733 176.926C539.733 172.67 539.822 169.036 539.999 166.022C539.999 156.802 540.176 146.075 540.531 133.841C540.885 121.429 541.329 112.564 541.861 107.245L543.19 88.362C545.318 58.9293 546.382 42.3513 546.382 38.6279C546.382 24.6208 546.648 14.1598 547.18 7.24494C547.534 2.45771 550.017 0.0640869 554.626 0.0640869C556.045 0.0640869 557.375 0.152742 558.616 0.330044C559.857 0.507347 560.832 0.595998 561.541 0.595998L584.148 0.330044Z" fill="white"/>
<path d="M776.643 4.58537C788.7 4.58537 797.831 6.62437 804.036 10.7024C810.419 14.7804 814.852 18.5925 817.334 22.1386C819.817 25.5074 821.412 27.5464 822.121 28.2556C823.54 29.8513 824.249 31.5357 824.249 33.3088C824.249 35.4364 823.451 37.2981 821.856 38.8939C820.26 40.4896 818.221 42.2627 815.739 44.213C813.434 46.1634 811.306 47.8478 809.356 49.2662C808.469 49.7981 807.671 50.0641 806.962 50.0641C805.366 50.0641 803.77 49.2662 802.175 47.6705C801.82 47.3159 799.249 44.3903 794.462 38.8939C789.675 33.2201 782.494 30.3832 772.919 30.3832C765.65 30.3832 759.356 34.284 754.036 42.0854C748.717 49.7095 744.639 59.018 741.802 70.0109C739.143 80.8265 737.813 90.9329 737.813 100.33C737.813 110.082 739.231 120.454 742.068 131.447C744.905 142.44 749.426 151.837 755.632 159.639C762.015 167.44 769.994 171.341 779.568 171.341C792.334 171.341 802.086 166.376 808.824 156.447C811.661 151.837 813.522 146.784 814.409 141.287H806.696L794.728 141.022L767.866 140.756C764.852 140.756 763.345 139.337 763.345 136.5V126.128C763.345 124.355 763.611 123.291 764.143 122.936C764.675 122.405 765.384 122.139 766.27 122.139H778.504L833.026 120.809C834.621 120.809 835.774 121.607 836.483 123.202C837.37 124.798 837.724 126.926 837.547 129.585C837.547 135.791 836.395 143.858 834.09 153.787C831.785 163.539 826.111 173.114 817.068 182.511C808.026 191.731 794.551 196.341 776.643 196.341C763.345 196.341 751.909 191.287 742.334 181.181C732.937 171.075 725.845 158.131 721.058 142.351C716.448 126.394 714.143 110.082 714.143 93.4152C714.143 77.8123 716.98 63.1847 722.653 49.5322C728.504 35.8797 736.217 24.9754 745.792 16.8194C755.543 8.66338 765.827 4.58537 776.643 4.58537Z" fill="white"/>
</svg>
